<mxfile host="65bd71144e">
    <diagram id="GJN9AKfpvLEU3T8_DCXJ" name="Page-1">
        <mxGraphModel dx="1453" dy="742" grid="1" gridSize="10" guides="1" tooltips="1" connect="1" arrows="1" fold="1" page="1" pageScale="1" pageWidth="850" pageHeight="1100" math="0" shadow="0">
            <root>
                <mxCell id="0"/>
                <mxCell id="1" parent="0"/>
                <mxCell id="11" value="Attribute" style="ellipse;whiteSpace=wrap;html=1;align=center;fontStyle=4;" vertex="1" parent="1">
                    <mxGeometry x="210" y="50" width="100" height="40" as="geometry"/>
                </mxCell>
                <mxCell id="19" value="Person" style="rounded=1;arcSize=10;whiteSpace=wrap;html=1;align=center;" vertex="1" parent="1">
                    <mxGeometry x="350" y="130" width="100" height="40" as="geometry"/>
                </mxCell>
                <mxCell id="20" value="Employee" style="rounded=1;arcSize=10;whiteSpace=wrap;html=1;align=center;" vertex="1" parent="1">
                    <mxGeometry x="350" y="330" width="100" height="40" as="geometry"/>
                </mxCell>
                <mxCell id="21" value="Equipment" style="rounded=1;arcSize=10;whiteSpace=wrap;html=1;align=center;" vertex="1" parent="1">
                    <mxGeometry x="560" y="490" width="100" height="40" as="geometry"/>
                </mxCell>
                <mxCell id="22" value="Inventory" style="rounded=1;arcSize=10;whiteSpace=wrap;html=1;align=center;" vertex="1" parent="1">
                    <mxGeometry x="180" y="490" width="100" height="40" as="geometry"/>
                </mxCell>
                <mxCell id="23" value="DamageLost" style="rounded=1;arcSize=10;whiteSpace=wrap;html=1;align=center;" vertex="1" parent="1">
                    <mxGeometry x="110" y="620" width="100" height="40" as="geometry"/>
                </mxCell>
                <mxCell id="24" value="Tool" style="rounded=1;arcSize=10;whiteSpace=wrap;html=1;align=center;" vertex="1" parent="1">
                    <mxGeometry x="600" y="640" width="100" height="40" as="geometry"/>
                </mxCell>
                <mxCell id="25" value="CheckInOut" style="rounded=1;arcSize=10;whiteSpace=wrap;html=1;align=center;" vertex="1" parent="1">
                    <mxGeometry x="220" y="760" width="100" height="40" as="geometry"/>
                </mxCell>
            </root>
        </mxGraphModel>
    </diagram>
</mxfile>